<svg width="25" height="25" viewBox="0 0 25 25" fill="none" xmlns="http://www.w3.org/2000/svg">
<path d="M8.75 15.25C11.4424 15.25 13.625 13.0674 13.625 10.375C13.625 7.68261 11.4424 5.5 8.75 5.5C6.05761 5.5 3.875 7.68261 3.875 10.375C3.875 13.0674 6.05761 15.25 8.75 15.25Z" stroke="#A1A5B3" stroke-width="1.5" stroke-miterlimit="10"/>
<path d="M15.0703 5.68173C15.7408 5.49281 16.4441 5.44978 17.1326 5.55552C17.8212 5.66126 18.4791 5.91333 19.062 6.29475C19.6449 6.67616 20.1393 7.17807 20.512 7.76666C20.8846 8.35525 21.1268 9.01685 21.2221 9.70692C21.3175 10.397 21.264 11.0995 21.065 11.7671C20.866 12.4347 20.5263 13.0519 20.0687 13.5772C19.6111 14.1024 19.0463 14.5235 18.4123 14.8121C17.7782 15.1007 17.0897 15.2501 16.3931 15.2501" stroke="#A1A5B3" stroke-width="1.5" stroke-linecap="round" stroke-linejoin="round"/>
<path d="M2 18.7559C2.76138 17.6729 3.77215 16.789 4.94698 16.1788C6.12182 15.5686 7.42623 15.2501 8.75008 15.25C10.0739 15.2499 11.3784 15.5684 12.5532 16.1785C13.7281 16.7886 14.739 17.6725 15.5004 18.7554" stroke="#A1A5B3" stroke-width="1.5" stroke-linecap="round" stroke-linejoin="round"/>
<path d="M16.3926 15.25C17.7166 15.249 19.0213 15.5671 20.1962 16.1773C21.3712 16.7875 22.3819 17.6718 23.1426 18.7554" stroke="#A1A5B3" stroke-width="1.5" stroke-linecap="round" stroke-linejoin="round"/>
</svg>
